<mxfile host="Electron" agent="Mozilla/5.0 (Windows NT 10.0; Win64; x64) AppleWebKit/537.36 (KHTML, like Gecko) draw.io/27.0.9 Chrome/134.0.6998.205 Electron/35.4.0 Safari/537.36" version="27.0.9">
  <diagram name="Page-1" id="T0NO_kN6Iv4_U3EaIuqe">
    <mxGraphModel dx="1042" dy="634" grid="1" gridSize="10" guides="1" tooltips="1" connect="1" arrows="1" fold="1" page="1" pageScale="1" pageWidth="850" pageHeight="1100" math="0" shadow="0">
      <root>
        <mxCell id="0" />
        <mxCell id="1" parent="0" />
        <mxCell id="0fXSXn5xEfotqv0Qwx5z-5" value="" style="rounded=0;whiteSpace=wrap;html=1;fillColor=none;dashed=1;" parent="1" vertex="1">
          <mxGeometry x="120" y="440" width="160" height="620" as="geometry" />
        </mxCell>
        <mxCell id="0fXSXn5xEfotqv0Qwx5z-6" value="&lt;font style=&quot;font-size: 24px;&quot;&gt;Sources&lt;/font&gt;" style="rounded=0;whiteSpace=wrap;html=1;fillColor=none;" parent="1" vertex="1">
          <mxGeometry x="120" y="420" width="160" height="20" as="geometry" />
        </mxCell>
        <mxCell id="0fXSXn5xEfotqv0Qwx5z-27" style="edgeStyle=orthogonalEdgeStyle;rounded=0;orthogonalLoop=1;jettySize=auto;html=1;entryX=0;entryY=0.5;entryDx=0;entryDy=0;" parent="1" source="0fXSXn5xEfotqv0Qwx5z-7" target="0fXSXn5xEfotqv0Qwx5z-16" edge="1">
          <mxGeometry relative="1" as="geometry" />
        </mxCell>
        <mxCell id="0fXSXn5xEfotqv0Qwx5z-28" style="edgeStyle=orthogonalEdgeStyle;rounded=0;orthogonalLoop=1;jettySize=auto;html=1;entryX=0;entryY=0.5;entryDx=0;entryDy=0;" parent="1" source="0fXSXn5xEfotqv0Qwx5z-7" target="0fXSXn5xEfotqv0Qwx5z-19" edge="1">
          <mxGeometry relative="1" as="geometry" />
        </mxCell>
        <mxCell id="0fXSXn5xEfotqv0Qwx5z-29" style="edgeStyle=orthogonalEdgeStyle;rounded=0;orthogonalLoop=1;jettySize=auto;html=1;entryX=0;entryY=0.5;entryDx=0;entryDy=0;" parent="1" source="0fXSXn5xEfotqv0Qwx5z-7" target="0fXSXn5xEfotqv0Qwx5z-15" edge="1">
          <mxGeometry relative="1" as="geometry" />
        </mxCell>
        <mxCell id="0fXSXn5xEfotqv0Qwx5z-7" value="CRM" style="image;aspect=fixed;html=1;points=[];align=center;fontSize=12;image=img/lib/azure2/general/Folder_Blank.svg;fontStyle=1" parent="1" vertex="1">
          <mxGeometry x="160" y="547.25" width="65" height="52.75" as="geometry" />
        </mxCell>
        <mxCell id="0fXSXn5xEfotqv0Qwx5z-8" value="" style="image;aspect=fixed;html=1;points=[];align=center;fontSize=12;image=img/lib/azure2/general/File.svg;" parent="1" vertex="1">
          <mxGeometry x="200.64999999999998" y="570" width="24.35" height="30" as="geometry" />
        </mxCell>
        <mxCell id="0fXSXn5xEfotqv0Qwx5z-36" style="edgeStyle=orthogonalEdgeStyle;rounded=0;orthogonalLoop=1;jettySize=auto;html=1;entryX=0;entryY=0.5;entryDx=0;entryDy=0;" parent="1" source="0fXSXn5xEfotqv0Qwx5z-9" target="0fXSXn5xEfotqv0Qwx5z-18" edge="1">
          <mxGeometry relative="1" as="geometry" />
        </mxCell>
        <mxCell id="0fXSXn5xEfotqv0Qwx5z-37" style="edgeStyle=orthogonalEdgeStyle;rounded=0;orthogonalLoop=1;jettySize=auto;html=1;entryX=0;entryY=0.5;entryDx=0;entryDy=0;" parent="1" source="0fXSXn5xEfotqv0Qwx5z-9" target="0fXSXn5xEfotqv0Qwx5z-20" edge="1">
          <mxGeometry relative="1" as="geometry" />
        </mxCell>
        <mxCell id="0fXSXn5xEfotqv0Qwx5z-38" style="edgeStyle=orthogonalEdgeStyle;rounded=0;orthogonalLoop=1;jettySize=auto;html=1;" parent="1" source="0fXSXn5xEfotqv0Qwx5z-9" target="0fXSXn5xEfotqv0Qwx5z-17" edge="1">
          <mxGeometry relative="1" as="geometry" />
        </mxCell>
        <mxCell id="0fXSXn5xEfotqv0Qwx5z-9" value="ERP" style="image;aspect=fixed;html=1;points=[];align=center;fontSize=12;image=img/lib/azure2/general/Folder_Blank.svg;fontStyle=1" parent="1" vertex="1">
          <mxGeometry x="158" y="824" width="69" height="56.00000000000001" as="geometry" />
        </mxCell>
        <mxCell id="0fXSXn5xEfotqv0Qwx5z-13" value="" style="rounded=0;whiteSpace=wrap;html=1;fillColor=none;dashed=1;" parent="1" vertex="1">
          <mxGeometry x="440" y="420" width="160" height="620" as="geometry" />
        </mxCell>
        <mxCell id="uRSwaePC1j9QvcDVOTSe-9" style="edgeStyle=orthogonalEdgeStyle;rounded=0;orthogonalLoop=1;jettySize=auto;html=1;" parent="1" source="0fXSXn5xEfotqv0Qwx5z-15" target="uRSwaePC1j9QvcDVOTSe-2" edge="1">
          <mxGeometry relative="1" as="geometry" />
        </mxCell>
        <mxCell id="0fXSXn5xEfotqv0Qwx5z-15" value="crm_cust_info" style="rounded=1;whiteSpace=wrap;html=1;fillColor=#ffcc99;strokeColor=#36393d;" parent="1" vertex="1">
          <mxGeometry x="450" y="480" width="140" height="40" as="geometry" />
        </mxCell>
        <mxCell id="uRSwaePC1j9QvcDVOTSe-10" style="edgeStyle=orthogonalEdgeStyle;rounded=0;orthogonalLoop=1;jettySize=auto;html=1;entryX=0;entryY=0.5;entryDx=0;entryDy=0;" parent="1" source="0fXSXn5xEfotqv0Qwx5z-16" target="uRSwaePC1j9QvcDVOTSe-3" edge="1">
          <mxGeometry relative="1" as="geometry" />
        </mxCell>
        <mxCell id="0fXSXn5xEfotqv0Qwx5z-16" value="crm_prd_info" style="rounded=1;whiteSpace=wrap;html=1;fillColor=#ffcc99;strokeColor=#36393d;" parent="1" vertex="1">
          <mxGeometry x="450" y="560" width="140" height="40" as="geometry" />
        </mxCell>
        <mxCell id="uRSwaePC1j9QvcDVOTSe-13" style="edgeStyle=orthogonalEdgeStyle;rounded=0;orthogonalLoop=1;jettySize=auto;html=1;entryX=0;entryY=0.5;entryDx=0;entryDy=0;" parent="1" source="0fXSXn5xEfotqv0Qwx5z-17" target="uRSwaePC1j9QvcDVOTSe-4" edge="1">
          <mxGeometry relative="1" as="geometry" />
        </mxCell>
        <mxCell id="0fXSXn5xEfotqv0Qwx5z-17" value="erp_LOC_A101" style="rounded=1;whiteSpace=wrap;html=1;fillColor=#ffcc99;strokeColor=#36393d;" parent="1" vertex="1">
          <mxGeometry x="450" y="840" width="140" height="40" as="geometry" />
        </mxCell>
        <mxCell id="uRSwaePC1j9QvcDVOTSe-12" style="edgeStyle=orthogonalEdgeStyle;rounded=0;orthogonalLoop=1;jettySize=auto;html=1;" parent="1" source="0fXSXn5xEfotqv0Qwx5z-18" target="uRSwaePC1j9QvcDVOTSe-5" edge="1">
          <mxGeometry relative="1" as="geometry" />
        </mxCell>
        <mxCell id="0fXSXn5xEfotqv0Qwx5z-18" value="erp_CUST_AZ12" style="rounded=1;whiteSpace=wrap;html=1;fillColor=#ffcc99;strokeColor=#36393d;" parent="1" vertex="1">
          <mxGeometry x="450" y="760" width="140" height="40" as="geometry" />
        </mxCell>
        <mxCell id="uRSwaePC1j9QvcDVOTSe-11" style="edgeStyle=orthogonalEdgeStyle;rounded=0;orthogonalLoop=1;jettySize=auto;html=1;entryX=0;entryY=0.5;entryDx=0;entryDy=0;" parent="1" source="0fXSXn5xEfotqv0Qwx5z-19" target="uRSwaePC1j9QvcDVOTSe-6" edge="1">
          <mxGeometry relative="1" as="geometry" />
        </mxCell>
        <mxCell id="0fXSXn5xEfotqv0Qwx5z-19" value="crm_sales_details" style="rounded=1;whiteSpace=wrap;html=1;fillColor=#ffcc99;strokeColor=#36393d;" parent="1" vertex="1">
          <mxGeometry x="450" y="640" width="140" height="40" as="geometry" />
        </mxCell>
        <mxCell id="uRSwaePC1j9QvcDVOTSe-14" style="edgeStyle=orthogonalEdgeStyle;rounded=0;orthogonalLoop=1;jettySize=auto;html=1;entryX=0;entryY=0.5;entryDx=0;entryDy=0;" parent="1" source="0fXSXn5xEfotqv0Qwx5z-20" target="uRSwaePC1j9QvcDVOTSe-7" edge="1">
          <mxGeometry relative="1" as="geometry" />
        </mxCell>
        <mxCell id="0fXSXn5xEfotqv0Qwx5z-20" value="erp_PX_CAT_G1V2" style="rounded=1;whiteSpace=wrap;html=1;fillColor=#ffcc99;strokeColor=#36393d;" parent="1" vertex="1">
          <mxGeometry x="450" y="920" width="140" height="40" as="geometry" />
        </mxCell>
        <mxCell id="0fXSXn5xEfotqv0Qwx5z-21" value="Bronze Layer" style="rounded=0;whiteSpace=wrap;html=1;fontSize=20;fillColor=#ffcc99;strokeColor=#36393d;" parent="1" vertex="1">
          <mxGeometry x="440" y="420" width="160" height="20" as="geometry" />
        </mxCell>
        <mxCell id="0fXSXn5xEfotqv0Qwx5z-22" value="" style="image;aspect=fixed;html=1;points=[];align=center;fontSize=12;image=img/lib/azure2/general/File.svg;" parent="1" vertex="1">
          <mxGeometry x="202.65" y="850" width="24.35" height="30" as="geometry" />
        </mxCell>
        <mxCell id="uRSwaePC1j9QvcDVOTSe-1" value="" style="rounded=0;whiteSpace=wrap;html=1;fillColor=none;dashed=1;gradientColor=#b3b3b3;strokeColor=#666666;" parent="1" vertex="1">
          <mxGeometry x="680" y="420" width="160" height="620" as="geometry" />
        </mxCell>
        <mxCell id="uRSwaePC1j9QvcDVOTSe-2" value="crm_cust_info" style="rounded=1;whiteSpace=wrap;html=1;fillColor=#f5f5f5;strokeColor=#666666;gradientColor=#b3b3b3;" parent="1" vertex="1">
          <mxGeometry x="690" y="480" width="140" height="40" as="geometry" />
        </mxCell>
        <mxCell id="uRSwaePC1j9QvcDVOTSe-3" value="crm_prd_info" style="rounded=1;whiteSpace=wrap;html=1;fillColor=#f5f5f5;strokeColor=#666666;gradientColor=#b3b3b3;" parent="1" vertex="1">
          <mxGeometry x="690" y="560" width="140" height="40" as="geometry" />
        </mxCell>
        <mxCell id="uRSwaePC1j9QvcDVOTSe-4" value="erp_LOC_A101" style="rounded=1;whiteSpace=wrap;html=1;fillColor=#f5f5f5;strokeColor=#666666;gradientColor=#b3b3b3;" parent="1" vertex="1">
          <mxGeometry x="690" y="840" width="140" height="40" as="geometry" />
        </mxCell>
        <mxCell id="uRSwaePC1j9QvcDVOTSe-5" value="erp_CUST_AZ12" style="rounded=1;whiteSpace=wrap;html=1;fillColor=#f5f5f5;strokeColor=#666666;gradientColor=#b3b3b3;" parent="1" vertex="1">
          <mxGeometry x="690" y="760" width="140" height="40" as="geometry" />
        </mxCell>
        <mxCell id="uRSwaePC1j9QvcDVOTSe-6" value="crm_sales_details" style="rounded=1;whiteSpace=wrap;html=1;fillColor=#f5f5f5;strokeColor=#666666;gradientColor=#b3b3b3;" parent="1" vertex="1">
          <mxGeometry x="690" y="640" width="140" height="40" as="geometry" />
        </mxCell>
        <mxCell id="uRSwaePC1j9QvcDVOTSe-7" value="erp_PX_CAT_G1V2" style="rounded=1;whiteSpace=wrap;html=1;fillColor=#f5f5f5;strokeColor=#666666;gradientColor=#b3b3b3;" parent="1" vertex="1">
          <mxGeometry x="690" y="920" width="140" height="40" as="geometry" />
        </mxCell>
        <mxCell id="uRSwaePC1j9QvcDVOTSe-8" value="Silver Layer" style="rounded=0;whiteSpace=wrap;html=1;fontSize=20;fillColor=#f5f5f5;strokeColor=#666666;gradientColor=#b3b3b3;" parent="1" vertex="1">
          <mxGeometry x="680" y="420" width="160" height="20" as="geometry" />
        </mxCell>
        <mxCell id="TKr08qTmM6PZxft00a-U-1" value="" style="rounded=0;whiteSpace=wrap;html=1;fillColor=none;dashed=1;gradientColor=#b3b3b3;strokeColor=#666666;" vertex="1" parent="1">
          <mxGeometry x="960" y="420" width="160" height="620" as="geometry" />
        </mxCell>
        <mxCell id="TKr08qTmM6PZxft00a-U-2" value="fact_sales" style="rounded=1;whiteSpace=wrap;html=1;fillColor=#f0a30a;strokeColor=#BD7000;fontColor=#000000;" vertex="1" parent="1">
          <mxGeometry x="970" y="640" width="140" height="40" as="geometry" />
        </mxCell>
        <mxCell id="TKr08qTmM6PZxft00a-U-3" value="dim_customers" style="rounded=1;whiteSpace=wrap;html=1;fillColor=#f0a30a;strokeColor=#BD7000;fontColor=#000000;" vertex="1" parent="1">
          <mxGeometry x="970" y="800" width="140" height="40" as="geometry" />
        </mxCell>
        <mxCell id="TKr08qTmM6PZxft00a-U-6" value="dim_products" style="rounded=1;whiteSpace=wrap;html=1;fillColor=#f0a30a;strokeColor=#BD7000;fontColor=#000000;" vertex="1" parent="1">
          <mxGeometry x="970" y="880" width="140" height="40" as="geometry" />
        </mxCell>
        <mxCell id="TKr08qTmM6PZxft00a-U-8" value="&lt;span&gt;Gold Layer&lt;/span&gt;" style="rounded=0;whiteSpace=wrap;html=1;fontSize=20;fillColor=#f0a30a;strokeColor=#BD7000;fontColor=#000000;" vertex="1" parent="1">
          <mxGeometry x="960" y="420" width="160" height="20" as="geometry" />
        </mxCell>
        <mxCell id="TKr08qTmM6PZxft00a-U-10" style="edgeStyle=orthogonalEdgeStyle;rounded=0;orthogonalLoop=1;jettySize=auto;html=1;exitX=1;exitY=0.5;exitDx=0;exitDy=0;entryX=0;entryY=0.5;entryDx=0;entryDy=0;" edge="1" parent="1" source="uRSwaePC1j9QvcDVOTSe-6" target="TKr08qTmM6PZxft00a-U-2">
          <mxGeometry relative="1" as="geometry">
            <mxPoint x="840" y="499.5" as="sourcePoint" />
            <mxPoint x="940" y="499.5" as="targetPoint" />
          </mxGeometry>
        </mxCell>
        <mxCell id="TKr08qTmM6PZxft00a-U-15" value="" style="endArrow=classic;html=1;rounded=0;exitX=1;exitY=0.5;exitDx=0;exitDy=0;entryX=0;entryY=0.5;entryDx=0;entryDy=0;" edge="1" parent="1" source="uRSwaePC1j9QvcDVOTSe-2" target="TKr08qTmM6PZxft00a-U-3">
          <mxGeometry width="50" height="50" relative="1" as="geometry">
            <mxPoint x="860" y="525" as="sourcePoint" />
            <mxPoint x="970" y="830" as="targetPoint" />
          </mxGeometry>
        </mxCell>
        <mxCell id="TKr08qTmM6PZxft00a-U-16" value="" style="endArrow=classic;html=1;rounded=0;exitX=1;exitY=0.5;exitDx=0;exitDy=0;entryX=0;entryY=0.5;entryDx=0;entryDy=0;" edge="1" parent="1" source="uRSwaePC1j9QvcDVOTSe-5" target="TKr08qTmM6PZxft00a-U-3">
          <mxGeometry width="50" height="50" relative="1" as="geometry">
            <mxPoint x="850" y="790" as="sourcePoint" />
            <mxPoint x="900" y="740" as="targetPoint" />
          </mxGeometry>
        </mxCell>
        <mxCell id="TKr08qTmM6PZxft00a-U-17" value="" style="endArrow=classic;html=1;rounded=0;exitX=1;exitY=0.5;exitDx=0;exitDy=0;entryX=0;entryY=0.5;entryDx=0;entryDy=0;" edge="1" parent="1" source="uRSwaePC1j9QvcDVOTSe-4" target="TKr08qTmM6PZxft00a-U-3">
          <mxGeometry width="50" height="50" relative="1" as="geometry">
            <mxPoint x="850" y="860" as="sourcePoint" />
            <mxPoint x="990" y="900" as="targetPoint" />
          </mxGeometry>
        </mxCell>
        <mxCell id="TKr08qTmM6PZxft00a-U-18" value="" style="endArrow=classic;html=1;rounded=0;exitX=1;exitY=0.5;exitDx=0;exitDy=0;entryX=0;entryY=0.5;entryDx=0;entryDy=0;" edge="1" parent="1" source="uRSwaePC1j9QvcDVOTSe-3" target="TKr08qTmM6PZxft00a-U-6">
          <mxGeometry width="50" height="50" relative="1" as="geometry">
            <mxPoint x="840" y="580" as="sourcePoint" />
            <mxPoint x="980" y="900" as="targetPoint" />
          </mxGeometry>
        </mxCell>
        <mxCell id="TKr08qTmM6PZxft00a-U-19" value="" style="endArrow=classic;html=1;rounded=0;exitX=1;exitY=0.5;exitDx=0;exitDy=0;entryX=0;entryY=0.5;entryDx=0;entryDy=0;" edge="1" parent="1" source="uRSwaePC1j9QvcDVOTSe-7" target="TKr08qTmM6PZxft00a-U-6">
          <mxGeometry width="50" height="50" relative="1" as="geometry">
            <mxPoint x="840" y="950" as="sourcePoint" />
            <mxPoint x="980" y="910" as="targetPoint" />
          </mxGeometry>
        </mxCell>
      </root>
    </mxGraphModel>
  </diagram>
</mxfile>
